<svg xmlns="http://www.w3.org/2000/svg" xmlns:xlink="http://www.w3.org/1999/xlink" xmlns:lucid="lucid" width="266" height="203.69"><g transform="translate(290 -407)" lucid:page-tab-id="qrnq~jXaJE9g"><path d="M-768 0H32v1400h-800z" fill="#fff"/><path d="M-272 531.36h48v48h-48v-48z" stroke="#000" stroke-opacity="0" fill="#02a8ef"/><path d="M-251.98 543.84l8.06 4.7c1.58.9 2.93 2.98 2.93 4.56v7.15c0 1.63-1.3 2.16-2.92 1.25l-2.54-1.5v-9.73l-5.52-3.17v-3.26z" stroke="#000" stroke-opacity="0" fill="#fff"/><path d="M-247.57 551l-7.44-4.33v15.9l7.43 4.3V551z" stroke="#000" stroke-opacity="0" fill="#fff"/><path d="M-290 586.33a6 6 0 0 1 6-6h72a6 6 0 0 1 6 6v17.78a6 6 0 0 1-6 6h-72a6 6 0 0 1-6-6z" fill="none"/><use xlink:href="#a" transform="matrix(1,0,0,1,-290,580.3305024889319) translate(22.359999999999996 20.333333333333336)"/><path d="M-49.18 570.48v-12.1h9.26v12.1h-9.26zm-22.9 0v-12.1h9.26v12.1h-9.26zm11.47 0v-12.1h9.26v12.1h-9.27zm21.78-14.3h-34.36c-.58 0-1.1.47-1.1 1.1v14.3c0 .63.52 1.1 1.1 1.1h34.36c.58 0 1.1-.47 1.1-1.1v-14.3c0-.63-.52-1.1-1.1-1.1zm-10.36-5.72v-9.26h9.26v9.26h-9.26zm-22.9 0v-9.26h9.26v9.26h-9.26zm11.47 0v-9.26h9.26v9.26h-9.27zM-38.83 539h-34.36c-.58 0-1.1.47-1.1 1.1v11.42c0 .62.52 1.1 1.1 1.1h34.36c.58 0 1.1-.48 1.1-1.1V540.1c0-.63-.52-1.1-1.1-1.1zm4.6 33.3c0 2.7-2.15 4.85-4.84 4.85h-33.88c-2.7 0-4.85-2.16-4.85-4.85v-33.9c0-2.67 2.17-4.83 4.86-4.83h33.88c2.7 0 4.85 2.15 4.85 4.84v33.9zm-4.84-40.94h-33.88c-3.9 0-7.06 3.16-7.06 7.05v33.9c0 3.9 3.17 7.06 7.06 7.06h33.88c3.9 0 7.06-3.17 7.06-7.06v-33.9c0-3.88-3.17-7.04-7.06-7.04z" stroke="#000" stroke-opacity="0" fill="#ed7100"/><path d="M-88 586.33a6 6 0 0 1 6-6h52a6 6 0 0 1 6 6v18.36a6 6 0 0 1-6 6h-52a6 6 0 0 1-6-6z" fill="none"/><use xlink:href="#b" transform="matrix(1,0,0,1,-88,580.3305024889318) translate(6.146666666666668 20.833333333333336)"/><use xlink:href="#c" transform="matrix(1,0,0,1,-88,580.3305024889318) translate(33.693333333333335 20.833333333333336)"/><path d="M-208.55 556.33c0 2.2-1.8 4-4 4s-4-1.8-4-4 1.8-4 4-4 4 1.8 4 4z" stroke="#02a8ef" stroke-width="2" fill="#fff"/><path d="M-206.47 556.33h99.42" stroke="#02a8ef" stroke-width="2" fill="none"/><path d="M-206.44 557.3h-1.43l.4-.97-.4-.97h1.43z" stroke="#02a8ef" stroke-width=".05" fill="#02a8ef"/><path d="M-91.8 556.33l-14.25 4.64v-9.27z" stroke="#02a8ef" stroke-width="2" fill="#02a8ef"/><path d="M-248 515.6c2.2 0 4 1.8 4 4s-1.8 4-4 4-4-1.8-4-4 1.8-4 4-4z" stroke="#02a8ef" stroke-width="2" fill="#fff"/><path d="M-176 410a2 2 0 0 1 2-2h44a2 2 0 0 1 2 2v44a2 2 0 0 1-2 2h-44a2 2 0 0 1-2-2z" stroke="#000" stroke-opacity="0" stroke-width="2" fill="#fff"/><path d="M-164.96 419.62l13.25 25.72 13.38-25.72h-26.64zm11.18 10.22h-2.1v-2.1h2.1v2.1zm0-3.17h-2.1v-2.1h2.1v2.1zm3.17 6.34h-2.12v-2.1h2.1v2.1zm0-3.16h-2.12v-2.1h2.1v2.1zm0-3.17h-2.12v-2.1h2.1v2.1zm3.16 3.17h-2.1v-2.1h2.1v2.1zm-2.1-3.17v-2.1h2.1v2.1h-2.1z" stroke="#000" stroke-opacity="0" stroke-width="0" fill="#ffcf25"/><path d="M-134.38 456h-35.24c-1.1 0-1.96 0-2.64-.05-.67-.05-1.15-.2-1.58-.38-.72-.4-1.34-1-1.73-1.73-.2-.43-.33-.9-.38-1.58-.05-.68-.05-1.5-.05-2.64v-35.24c0-1.1 0-1.96.05-2.6.05-.7.2-1.2.38-1.62.4-.72.96-1.34 1.73-1.73.43-.2.9-.33 1.58-.38.68-.05 1.5-.05 2.64-.05h35.24c1.1 0 1.96 0 2.64.05.67.05 1.15.2 1.58.38.72.4 1.34 1 1.73 1.73.2.43.33.9.38 1.58.05.68.05 1.5.05 2.64v35.24c0 1.1 0 1.96-.05 2.6-.05.7-.2 1.2-.38 1.57-.4.76-1 1.38-1.73 1.77-.43.2-.9.33-1.58.38-.68.05-1.54.05-2.64.05zm-35.24-45.98c-1.1 0-1.87 0-2.44.04-.44 0-.72.05-.87.15-.38.2-.67.5-.86.87-.1.2-.14.43-.18.87-.05.57-.05 1.4-.05 2.44v35.24c0 1.05 0 1.87.05 2.44.04.44.1.68.2.87.18.38.47.67.85.86.15.1.43.14.87.14.57.04 1.34.04 2.44.04h35.24c1.1 0 1.87 0 2.44-.04.44 0 .72-.05.87-.15.38-.2.67-.5.86-.87.1-.2.14-.43.18-.87.05-.57.05-1.4.05-2.44v-35.24c0-1.05 0-1.87-.05-2.44-.04-.44-.1-.68-.2-.87-.18-.38-.47-.67-.85-.86-.15-.1-.43-.14-.87-.14-.57-.04-1.4-.04-2.44-.04h-35.24z" stroke="#000" stroke-opacity="0" stroke-width="0" fill="#ffcf25"/><path d="M-248 514.6V438a6 6 0 0 1 6-6h39.5M-248 514.58v1.02" stroke="#02a8ef" stroke-width="2" fill="none"/><path d="M-187.24 432l-14.26 4.63v-9.26z" stroke="#02a8ef" stroke-width="2" fill="#02a8ef"/><path d="M-194 462a6 6 0 0 1 6-6h72a6 6 0 0 1 6 6v17.78a6 6 0 0 1-6 6h-72a6 6 0 0 1-6-6z" fill="none"/><use xlink:href="#d" transform="matrix(1,0,0,1,-194,456) translate(1.1999999999999957 13.333333333333334)"/><use xlink:href="#e" transform="matrix(1,0,0,1,-194,456) translate(34.70666666666666 13.333333333333334)"/><use xlink:href="#f" transform="matrix(1,0,0,1,-194,456) translate(64.37333333333333 13.333333333333334)"/><use xlink:href="#g" transform="matrix(1,0,0,1,-194,456) translate(12.059999999999999 29.333333333333336)"/><use xlink:href="#h" transform="matrix(1,0,0,1,-194,456) translate(51.980000000000004 29.333333333333336)"/><g><path d="M-116 428c2.2 0 4 1.8 4 4s-1.8 4-4 4-4-1.8-4-4 1.8-4 4-4z" stroke="#ffcf25" stroke-width="2" fill="#fff"/></g><path d="M-111 432h49a6 6 0 0 1 6 6v67.1M-110.97 432H-112" stroke="#ffcf25" stroke-width="2" fill="none"/><path d="M-56 520.37l-4.63-14.27h9.27z" stroke="#ffcf25" stroke-width="2" fill="#ffcf25"/><defs><path fill="#3a414a" d="M75 1v-701l300-1c123 0 205 93 205 214 0 120-84 210-211 210H183V1H75zm108-373h164c69 0 124-39 124-116 0-78-55-118-124-118H183v234" id="i"/><path fill="#3a414a" d="M347-59C262 57 30 23 30-141c-2-104 81-145 182-152 64-6 135-10 135-62 0-32-31-60-82-60-70 0-100 44-105 81l-112 1c9-100 90-179 212-179 127 0 198 75 198 174V0H347v-59zM217-82c55 3 128-30 130-109l1-45c-22 12-67 19-116 23-55 5-87 26-87 65 0 35 26 63 72 66" id="j"/><path fill="#3a414a" d="M270 7C129 7 30-99 30-250c0-152 101-260 244-260 116 0 207 74 220 179H382c-11-45-49-88-112-88-70 0-127 60-127 162 0 107 57 170 129 170 64 0 101-43 110-88h112C480-68 387 7 270 7" id="k"/><path fill="#3a414a" d="M65 0v-700h105v393l179-193h132L293-300 502-1 383 0 226-225l-56 59V0H65" id="l"/><path fill="#3a414a" d="M271 11C125 11 30-85 30-246c0-155 96-260 238-260 154 0 238 127 226 292-118 1-238-1-354 1 0 82 52 132 131 132 32 0 92-11 115-77h100C471-60 391 11 271 11zM143-307h239c-3-63-50-107-117-107s-118 44-122 107" id="m"/><path fill="#3a414a" d="M65 0v-500h103v61c5-22 66-78 163-69v111c-83-3-163 13-163 144V0H65" id="n"/><g id="a"><use transform="matrix(0.013333333333333334,0,0,0.013333333333333334,0,0)" xlink:href="#i"/><use transform="matrix(0.013333333333333334,0,0,0.013333333333333334,7.599999999999999,0)" xlink:href="#j"/><use transform="matrix(0.013333333333333334,0,0,0.013333333333333334,14.440000000000001,0)" xlink:href="#k"/><use transform="matrix(0.013333333333333334,0,0,0.013333333333333334,21.44,0)" xlink:href="#l"/><use transform="matrix(0.013333333333333334,0,0,0.013333333333333334,27.866666666666667,0)" xlink:href="#m"/><use transform="matrix(0.013333333333333334,0,0,0.013333333333333334,34.866666666666674,0)" xlink:href="#n"/></g><path fill="#3a414a" d="M75 0v-700h459v107H182v187h331v103H182v196h352V0H75" id="o"/><path fill="#3a414a" d="M367 5C185 5 39-144 40-347c1-206 138-360 334-360 174 0 284 112 305 254H553c-14-75-81-145-184-145-127 0-206 114-206 252 0 135 79 243 202 243 108 0 174-77 188-148h126C656-113 547 5 367 5" id="p"/><path fill="#3a414a" d="M34 0v-107l159-137c127-109 204-162 204-244 0-72-49-119-123-119-72 0-124 50-133 127H26c6-137 106-229 249-229 134 0 233 92 233 216S407-297 291-194l-104 92h326V0H34" id="q"/><g id="b"><use transform="matrix(0.013333333333333334,0,0,0.013333333333333334,0,0)" xlink:href="#o"/><use transform="matrix(0.013333333333333334,0,0,0.013333333333333334,7.12,0)" xlink:href="#p"/><use transform="matrix(0.013333333333333334,0,0,0.013333333333333334,16.64,0)" xlink:href="#q"/></g><path fill="#3a414a" d="M145 0L20-1l268-699h112L668 0H543l-66-172H210zm95-272h207L344-563" id="r"/><path fill="#3a414a" d="M75 0v-700h136l219 547 213-547h131V0H668v-500L475 0h-93L186-500V0H75" id="s"/><path fill="#3a414a" d="M80 0v-700h115V0H80" id="t"/><g id="c"><use transform="matrix(0.013333333333333334,0,0,0.013333333333333334,0,0)" xlink:href="#r"/><use transform="matrix(0.013333333333333334,0,0,0.013333333333333334,9.173333333333334,0)" xlink:href="#s"/><use transform="matrix(0.013333333333333334,0,0,0.013333333333333334,20.493333333333332,0)" xlink:href="#t"/></g><path fill="#3a414a" d="M272 0L10-700h113l201 552 201-552h112L375 0H272" id="u"/><path fill="#3a414a" d="M249 13C180 13 60-24 60-193v-307h115v295c0 88 43 123 99 123 66 0 125-63 125-166v-252h106V0H399v-63c-19 27-69 76-150 76" id="v"/><path fill="#3a414a" d="M65 0v-700h112V0H65" id="w"/><path fill="#3a414a" d="M205 0C125 0 68-55 68-133v-277h-78v-90h78v-160h104v160h128v90H172v250c0 50 13 66 61 66h68l-1 94h-95" id="x"/><g id="d"><use transform="matrix(0.013333333333333334,0,0,0.013333333333333334,0,0)" xlink:href="#u"/><use transform="matrix(0.013333333333333334,0,0,0.013333333333333334,8.093333333333334,0)" xlink:href="#j"/><use transform="matrix(0.013333333333333334,0,0,0.013333333333333334,14.933333333333334,0)" xlink:href="#v"/><use transform="matrix(0.013333333333333334,0,0,0.013333333333333334,22.533333333333335,0)" xlink:href="#w"/><use transform="matrix(0.013333333333333334,0,0,0.013333333333333334,25.76,0)" xlink:href="#x"/></g><path fill="#3a414a" d="M322 7C183 7 46-66 35-216h124c17 74 72 119 163 119 87 0 134-55 134-105 0-53-33-88-128-98C123-322 54-407 54-501c0-113 105-205 250-205 158 0 256 84 262 222H448c-5-73-69-114-145-114-82 0-124 49-124 93 0 55 56 88 142 98 201 23 260 105 260 206C581-73 472 7 322 7" id="y"/><path fill="#3a414a" d="M75 0v-700h117v292h329v-292h117V0H521v-312H192V0H75" id="z"/><g id="e"><use transform="matrix(0.013333333333333334,0,0,0.013333333333333334,0,0)" xlink:href="#y"/><use transform="matrix(0.013333333333333334,0,0,0.013333333333333334,8.213333333333335,0)" xlink:href="#y"/><use transform="matrix(0.013333333333333334,0,0,0.013333333333333334,16.42666666666667,0)" xlink:href="#z"/></g><g id="f"><use transform="matrix(0.013333333333333334,0,0,0.013333333333333334,0,0)" xlink:href="#p"/><use transform="matrix(0.013333333333333334,0,0,0.013333333333333334,9.253333333333334,0)" xlink:href="#r"/></g><path fill="#3a414a" d="M65 200v-700h101v69c14-27 71-80 159-80 105 0 229 85 229 258C554-83 439 5 328 5c-84 0-135-39-162-76v271H65zM305-92c80 0 136-64 136-154 0-97-56-166-136-166-81 0-138 65-138 156 0 96 57 164 138 164" id="A"/><path fill="#3a414a" d="M325 11c-88 0-145-53-159-80V0H65v-700h101v271c27-37 78-76 162-76 111 0 226 88 226 258C554-74 430 11 325 11zm-20-99c80 0 136-69 136-166 0-90-56-154-136-154-81 0-138 68-138 164 0 91 57 156 138 156" id="B"/><path fill="#3a414a" d="M60-572v-128h119v128H60zM64 0v-500h112V0H64" id="C"/><g id="g"><use transform="matrix(0.013333333333333334,0,0,0.013333333333333334,0,0)" xlink:href="#A"/><use transform="matrix(0.013333333333333334,0,0,0.013333333333333334,7.786666666666667,0)" xlink:href="#v"/><use transform="matrix(0.013333333333333334,0,0,0.013333333333333334,15.386666666666668,0)" xlink:href="#B"/><use transform="matrix(0.013333333333333334,0,0,0.013333333333333334,23.173333333333332,0)" xlink:href="#w"/><use transform="matrix(0.013333333333333334,0,0,0.013333333333333334,26.4,0)" xlink:href="#C"/><use transform="matrix(0.013333333333333334,0,0,0.013333333333333334,29.58666666666667,0)" xlink:href="#k"/></g><path fill="#3a414a" d="M36 200l-1-97c76 5 112-5 137-70l23-64L0-500h115l135 342 125-342h115L274 61C226 174 167 210 36 200" id="D"/><g id="h"><use transform="matrix(0.013333333333333334,0,0,0.013333333333333334,0,0)" xlink:href="#l"/><use transform="matrix(0.013333333333333334,0,0,0.013333333333333334,6.426666666666667,0)" xlink:href="#m"/><use transform="matrix(0.013333333333333334,0,0,0.013333333333333334,13.426666666666668,0)" xlink:href="#D"/></g></defs></g></svg>